<?xml version="1.0" encoding="UTF-8" standalone="no"?>
<!-- Created with Inkscape (http://www.inkscape.org/) -->

<svg
   width="58.423431mm"
   height="45.460999mm"
   viewBox="0 0 58.423431 45.460999"
   version="1.1"
   id="svg5"
   xml:space="preserve"
   xmlns:inkscape="http://www.inkscape.org/namespaces/inkscape"
   xmlns:sodipodi="http://sodipodi.sourceforge.net/DTD/sodipodi-0.dtd"
   xmlns="http://www.w3.org/2000/svg"
   xmlns:svg="http://www.w3.org/2000/svg"><sodipodi:namedview
     id="namedview7"
     pagecolor="#ffffff"
     bordercolor="#000000"
     borderopacity="0.25"
     inkscape:showpageshadow="2"
     inkscape:pageopacity="0.0"
     inkscape:pagecheckerboard="0"
     inkscape:deskcolor="#d1d1d1"
     inkscape:document-units="mm"
     showgrid="false" /><defs
     id="defs2" /><g
     inkscape:label="Camada 1"
     inkscape:groupmode="layer"
     id="layer1"
     transform="translate(286.19169,124.75911)"><g
       style="fill:none"
       id="g111"
       transform="matrix(0.46809774,0,0,0.46809774,-189.95598,-76.716454)"
       inkscape:export-filename="Scot Scot.svg"
       inkscape:export-xdpi="96"
       inkscape:export-ydpi="96"><path
         id="path9"
         style="display:inline;fill:#ffdfe7;fill-opacity:1"
         d="m 116.81818,0.00639572 c -0.26664,0.01220312 -0.53693,0.04236606 -0.81031,0.09162923 C 106.95988,0.19788405 97.910221,0.29734103 88.86133,0.39719993 86.002533,0.7313156 85.848649,4.2857992 85.721649,6.5330469 85.398949,7.3677861 86.460303,9.8706552 85.069205,8.9485261 80.807709,7.2561278 76.418311,5.513022 71.713415,5.7746218 66.63782,5.7760218 61.428107,7.4191542 57.657711,10.850661 57.736011,5.0633365 49.769414,2.8085233 44.941119,2.5996135 38.836625,1.6882444 32.223123,3.7890975 28.356227,8.7332526 27.585027,9.4493519 27.117533,10.806951 26.409933,11.320951 22.225038,9.5758523 17.727073,8.4147921 13.146877,8.7608517 6.9051836,8.8002217 0.97861192,13.913102 0.81777708,20.295096 0.50964939,25.463191 2.5968202,31.058571 7.3046855,33.674069 9.0079238,35.008167 11.55162,35.37455 12.824519,37.147148 11.60392,37.838847 10.243924,36.040682 9.1218147,35.459183 7.3793564,34.076384 5.7365304,33.984272 4.0336321,33.118773 1.129325,35.643471 0.17455304,39.921337 0.80673741,43.599833 1.9815432,47.657029 6.3154959,48.996452 9.8614724,50.311951 10.236472,50.532151 11.834358,50.777594 10.55366,50.880494 4.5438155,52.003293 0.15996607,58.067669 0.90940632,64.119263 1.0153662,68.715858 3.379874,73.210661 7.4228099,75.528758 8.9734584,76.734257 11.318825,77.180487 12.380724,78.875986 11.363125,79.455385 10.222743,77.796252 9.2719542,77.308353 7.5339259,75.682854 5.8954627,75.459456 4.2235144,74.804556 3.2974053,74.242757 2.2989721,76.067592 1.6932227,76.845791 c -1.86680015,3.512296 -2.8531336,8.699102 0.6325729,11.577299 2.6140974,2.289397 6.0672841,3.110312 9.2567604,4.261311 5.325595,1.327299 11.997618,1.63386 16.006414,-2.793036 1.515598,-1.684498 2.534837,-3.804597 3.043636,-5.982395 3.130397,2.820097 7.25488,3.948393 11.125777,5.313392 4.860995,1.036999 10.363229,1.187581 14.813025,-1.312617 1.394899,1.026199 2.94596,2.684345 4.691858,3.574644 1.508299,0.8471 3.041512,1.499735 4.428011,2.041235 3.246597,1.203399 6.860374,2.4356 10.53957,2.3934 7.561493,0.523899 15.717844,-3.3584 18.685741,-10.601393 -0.1781,1.756399 -0.368334,4.188224 1.854664,4.681923 3.086097,1.265199 6.294388,2.386263 9.709388,2.411063 2.629,0.0243 5.65787,0.728025 7.95187,-0.883173 1.06,-2.034398 0.33407,-4.556882 0.65907,-6.784979 0.242,-7.965392 0.48331,-15.929968 0.72531,-23.89536 2.50499,-0.0562 5.08571,0.46341 7.54671,0.05851 2.573,-1.416798 2.47527,-4.92194 2.63627,-7.497038 0.003,-2.523597 -0.19027,-6.207014 -3.22027,-6.850113 -2.00599,-0.844799 -3.96746,-1.024883 -6.33345,-1.358983 -1.278,-8.224192 -0.86166,-22.508207 -0.87766,-29.3059 2.505,-0.1412 5.10976,0.295601 7.55776,-0.194298 2.512,-1.505899 2.29805,-4.994441 2.37905,-7.5721082 -0.078,-2.5419674 -0.39378,-6.1416545 -3.41678,-6.7695238 -1.69225,-0.6800721 -3.40381,-1.43667716 -5.27034,-1.35125528 z M 93.548773,15.84611 c 0.612699,0.0018 1.225405,0.0036 1.838105,0.0055 -0.146289,0.662493 0.334608,4.387905 -0.21969,3.008309 -0.447299,-1.049999 -0.979116,-2.06753 -1.618415,-3.013829 z m -46.203215,1.73102 c 0.237066,-0.007 0.47513,7.58e-4 0.710955,0.02318 1.574698,0.2353 2.921077,1.320752 4.529575,1.322552 -1.290899,3.879296 -1.224863,8.316042 -1.075263,12.144738 -1.197999,-0.636799 -2.65171,-0.848286 -3.703809,0.226313 -1.457698,0.3918 -3.73267,1.335724 -4.472169,-0.577374 -1.656198,-3.293597 -1.781225,-7.537472 -0.174427,-10.872968 0.887599,-1.448999 2.525675,-2.217351 4.185138,-2.266444 z m 27.838729,3.954409 c 2.704397,3.128797 2.705265,7.872401 1.493667,11.632497 -0.6533,1.728398 -2.224445,3.299388 -4.158643,3.308588 -2.506697,-3.068997 -2.445783,-7.548046 -1.470484,-11.199742 0.6189,-1.825198 2.110162,-3.555944 4.13546,-3.741343 z m -55.780126,1.1967 c 0.321237,-0.0037 0.661695,0.04133 0.875445,0.02318 1.341499,0.092 2.397402,0.938727 3.562501,1.232027 0.3199,1.771998 0.05674,2.498411 -1.491459,1.311512 -1.144499,-0.824699 -3.013829,-1.057748 -3.709328,-2.295147 0.1393,-0.215449 0.441603,-0.267875 0.762841,-0.271575 z m 76.12292,18.187851 0.01104,2.429831 c 1.233499,1.996098 -0.4277,1.313291 -2.058898,1.361191 0.846799,-1.166099 1.514259,-2.455423 2.047858,-3.791022 z M 31.22102,41.580678 c 2.100198,1.887998 4.952101,2.877838 7.346899,3.823037 -4.847895,0.757699 -9.057944,4.111514 -11.644641,8.01811 -1.808098,-0.660199 -3.509887,-1.402826 -5.395085,-1.927526 5.160094,-0.633599 8.845528,-5.009226 9.692827,-9.913621 z m 26.231353,3.115394 0.524385,0.507825 c 2.367097,2.303998 5.419664,3.723828 8.449761,4.794527 -3.043597,0.567 -6.079355,2.170462 -8.336053,3.99636 0.885899,-2.895297 -1.627975,-5.316475 -4.222673,-6.032074 -0.910599,-0.3403 -1.82281,-0.688106 -2.730109,-1.031105 2.207198,-0.3339 4.517491,-0.842834 6.314689,-2.235533 z m 28.803596,5.772642 c -0.02,0.333 -0.03981,0.66619 -0.05961,0.99909 0.170299,1.399299 0.09813,2.151088 -1.270666,1.165789 -0.876699,-0.3669 -1.579499,-0.630256 -2.448598,-0.933956 1.296299,-0.2856 2.562879,-0.698623 3.778878,-1.230923 z m 8.105323,9.636526 c 0.4139,0.015 0.828063,0.03036 1.241963,0.04526 -0.1806,0.776099 0.252146,4.865079 -0.487953,2.471782 -0.0249,-0.8049 -1.898108,-2.589444 -0.75401,-2.517044 z m -46.863386,0.202025 c 0.24826,-0.0023 0.495978,0.01257 0.741865,0.04306 1.504099,0.4763 2.932022,1.336516 4.51412,1.479316 -1.407899,3.863196 -1.577023,8.254717 -1.481523,12.165713 -1.203199,-0.5801 -2.650421,-0.8812 -3.73472,0.166699 -1.497398,0.437199 -3.714376,1.109319 -4.390475,-0.829079 -1.547699,-3.260597 -1.505935,-7.370095 0.01766,-10.628992 0.861349,-1.564673 2.595243,-2.380657 4.33307,-2.396712 z M 19.488062,64.54981 c 0.270187,-0.0037 0.546564,0.02809 0.797064,0.03864 1.292499,0.3595 2.361123,1.095707 3.540421,1.393206 0.2526,1.735799 -0.0034,2.449318 -1.488147,1.229819 -1.103899,-0.882199 -3.092271,-1.167542 -3.609971,-2.488341 0.22575,-0.13085 0.490446,-0.169647 0.760633,-0.173322 z m 55.400362,0.733033 c 0.110659,-0.0016 0.22151,0.0047 0.333398,0.01877 2.599097,3.210297 2.430317,7.941684 1.118318,11.65568 -0.667999,1.612999 -2.494585,3.534258 -4.281183,2.993958 -2.367998,-3.234897 -2.183647,-7.790479 -0.931748,-11.431575 0.603937,-1.48828 2.101317,-3.212994 3.761215,-3.236831 z" /><path
         d="M 118.24,1.53621 88.8799,1.86052 c -0.7384,0.00827 -1.2516,0.94501 -1.5405,2.80733 -0.123,0.88952 -0.1817,1.79785 -0.1745,2.7259 0.0067,0.92765 0.0793,1.83515 0.2159,2.72165 0.3169,1.8532 0.8426,2.78 1.5792,2.7816 l 7.8799,0.0171 0.1659,30.4278 c 0.0051,0.8023 2.1836,1.2885 6.5712,1.4616 4.433,0.1748 6.666,-0.144 6.664,-0.9587 l -0.073,-30.9035 8.076,0.0171 c 0.79,0.0017 1.349,-0.9584 1.675,-2.883 0.14,-0.92161 0.21,-1.86462 0.21,-2.82881 0,-0.96463 -0.07,-1.90785 -0.21,-2.8302 -0.327,-1.92854 -0.887,-2.88904 -1.679,-2.8802 z M 42.2439,3.8935 C 42.0738,3.89238 41.9015,3.89292 41.729,3.89493 36.8235,3.95236 32.8126,5.80946 29.6723,9.43674 26.5995,13.0278 25.1521,17.9288 25.3068,24.1549 c 0.1534,6.1714 1.7987,10.9871 4.9505,14.4767 3.1721,3.512 7.1923,5.3736 12.091,5.5689 3.0744,0.1227 5.7473,-0.1993 8.0115,-0.97 2.2784,-0.7755 3.4097,-1.8985 3.3829,-3.366 -0.0139,-0.7529 -0.3035,-1.8165 -0.8668,-3.1887 -0.5636,-1.409 -1.1782,-2.5351 -1.8452,-3.3803 -0.6286,-0.8808 -1.0582,-1.3245 -1.2873,-1.3301 -0.2291,-0.0055 -0.3801,0.0296 -0.4549,0.1029 -0.4486,0.4395 -1.2217,0.7757 -2.3172,1.0101 -1.0553,0.1973 -2.016,0.2852 -2.8822,0.2628 -2.1011,-0.0544 -3.8533,-0.8612 -5.2624,-2.4158 -1.3681,-1.5495 -2.085,-3.879 -2.1541,-6.9948 -0.0701,-3.1575 0.526,-5.4964 1.7937,-7.0176 1.3101,-1.5273 3.055,-2.2903 5.2394,-2.2859 0.6426,0.0013 1.4035,0.1339 2.2815,0.4 0.9171,0.229 1.4918,0.4583 1.725,0.6858 0.2708,0.19 0.5028,0.285 0.6938,0.2857 0.6883,0.0026 1.5121,-0.9611 2.4745,-2.8959 1.0036,-1.9796 1.4951,-3.63914 1.4704,-4.97461 C 52.3263,6.79178 51.2248,5.75066 49.0553,5.0093 47.0669,4.2818 44.7948,3.9104 42.2439,3.8935 Z M 72.3047,7.23803 C 72.1234,7.23664 71.9416,7.23731 71.7583,7.23946 66.0144,7.30668 61.3952,9.12974 57.8708,12.6798 c -3.4483,3.5128 -5.0998,8.6379 -4.982,15.3882 0.1167,6.691 1.9193,11.8208 5.4239,15.4239 3.5689,3.6299 8.1571,5.5666 13.806,5.7919 5.7696,0.23 10.5186,-1.3015 14.2137,-4.6218 3.7344,-3.3955 5.5867,-8.7054 5.527,-15.9211 C 91.7991,21.4606 89.8899,16.0252 86.1507,12.4741 82.5541,9.02011 77.925,7.28093 72.3047,7.23803 Z M 14.5175,10.1811 c -0.1553,-5e-4 -0.3111,10e-4 -0.4678,0.0027 -3.659,0.0428 -6.56808,1.1716 -8.74385,3.3745 -2.12794,2.1517 -3.1382,4.7833 -3.04099,7.9034 0.09707,3.1155 0.84741,5.687 2.25285,7.7205 0.49393,0.7502 1.18891,1.4856 2.08835,2.2087 0.9341,0.6898 1.67832,1.2003 2.23138,1.5302 0.55273,0.2947 1.38286,0.7196 2.49176,1.2757 1.1118,0.5576 1.8808,1.0554 2.3057,1.493 0.4244,0.4023 0.6456,0.8713 0.6609,1.4072 0.0335,1.1786 -0.6903,1.7493 -2.1656,1.7102 C 10.6948,38.769 9.16685,38.2671 7.54582,37.3056 5.9647,36.3487 4.8487,35.6003 4.19444,35.0569 3.63868,35.5027 3.13172,36.4401 2.67538,37.87 c -0.45651,1.3918 -0.66155,2.8057 -0.61649,4.2431 0.04503,1.4364 0.68344,2.6838 1.9167,3.7431 1.23669,1.0623 2.66868,1.8009 4.29829,2.2159 1.6704,0.4181 3.53002,0.6682 5.58272,0.75 4.2416,0.0979 7.3787,-1.0298 9.3847,-3.3973 2.0194,-2.3834 2.9846,-5.5192 2.8851,-9.4007 -0.0764,-2.9794 -1.0812,-5.3947 -3.0066,-7.2376 -0.9412,-0.8822 -1.8224,-1.5816 -2.6448,-2.0973 -0.7867,-0.5506 -1.5347,-0.9916 -2.2428,-1.323 -0.6731,-0.3666 -1.2733,-0.6779 -1.8023,-0.9343 -0.5283,-0.256 -0.9329,-0.457 -1.2144,-0.6029 -1.2979,-0.6195 -1.9569,-1.3236 -1.9796,-2.1144 -0.037,-1.2947 0.8093,-1.9406 2.5432,-1.9387 1.7768,0.002 3.8052,0.6024 6.0905,1.8072 0.3121,-0.2172 0.8331,-1.2906 1.562,-3.2231 0.7301,-1.9747 1.0788,-3.6052 1.0456,-4.8874 L 24.4686,13.144 c -0.095,-0.9158 -1.2342,-1.6392 -3.41,-2.1658 C 19.0289,10.453 16.847,10.1879 14.5175,10.181 Z m 57.2637,8.3691 c 1.9685,0.0042 3.6264,0.8531 4.9691,2.5502 1.3875,1.7016 2.1013,4.1299 2.137,7.2776 0.0356,3.1432 -0.6007,5.5423 -1.9039,7.1962 -1.2568,1.6484 -2.9279,2.4429 -5.0106,2.3888 -2.0315,-0.0528 -3.6822,-0.9063 -4.9548,-2.5588 -1.2702,-1.6872 -1.9251,-4.0531 -1.9696,-7.1047 -0.0452,-3.0947 0.5621,-5.4916 1.828,-7.192 1.3116,-1.707 2.9457,-2.5614 4.9048,-2.5573 z m 17.7667,27.5319 c -0.7383,-0.0152 -1.281,0.9026 -1.6307,2.7545 -0.152,0.885 -0.24,1.7909 -0.2632,2.7187 -0.0233,0.9274 0.0183,1.8369 0.1259,2.7274 0.2561,1.8625 0.7515,2.806 1.4876,2.8316 l 7.8756,0.2743 -0.8282,30.4164 c -0.0219,0.8019 2.1401,1.3598 6.5201,1.6758 4.425,0.3192 6.666,0.0729 6.691,-0.7415 l 0.937,-30.8892 8.071,0.28 c 0.79,0.0273 1.379,-0.913 1.768,-2.8259 0.17,-0.9165 0.272,-1.8566 0.304,-2.8202 0.031,-0.9641 -0.009,-1.9095 -0.119,-2.8359 -0.264,-1.9382 -0.791,-2.9161 -1.584,-2.9331 z m -47.191,0.4958 c -4.9047,-0.1026 -8.9755,1.623 -12.2326,5.146 -3.1885,3.489 -4.7945,8.3404 -4.8433,14.5682 -0.0483,6.1731 1.4382,11.039 4.4743,14.6295 3.0556,3.6136 7.0138,5.6055 11.9036,5.9604 3.0687,0.2228 5.7504,-0.0118 8.0387,-0.7086 2.3025,-0.7008 3.469,-1.7855 3.4901,-3.2531 0.0108,-0.753 -0.2428,-1.826 -0.761,-3.2159 -0.5172,-1.4266 -1.096,-2.5724 -1.735,-3.4388 -0.5995,-0.9008 -1.0142,-1.3585 -1.243,-1.3715 -0.2287,-0.0135 -0.3806,0.0177 -0.4577,0.0885 -0.4628,0.4247 -1.2461,0.7358 -2.3487,0.9344 -1.0612,0.1628 -2.0243,0.2192 -2.8894,0.1685 -2.0981,-0.123 -3.8232,-0.9862 -5.1808,-2.5859 -1.3168,-1.5932 -1.9566,-3.9455 -1.9238,-7.0619 0.0331,-3.1581 0.7044,-5.4757 2.0211,-6.9547 1.3594,-1.4838 3.1293,-2.1901 5.3124,-2.1145 0.6422,0.0221 1.3983,0.1798 2.2671,0.4743 0.9092,0.2588 1.4751,0.5065 1.7008,0.7415 0.2644,0.1988 0.4942,0.3017 0.6851,0.3086 0.6879,0.0252 1.5425,-0.9121 2.5675,-2.8145 1.0678,-1.9458 1.6131,-3.5876 1.6321,-4.9231 0.0191,-1.3364 -1.0485,-2.4129 -3.1926,-3.2246 -1.9636,-0.7919 -4.2224,-1.2371 -6.7714,-1.3372 -0.1699,-0.0067 -0.341,-0.0118 -0.5135,-0.0152 z m 28.8392,4.3202 c -5.2592,0.0974 -9.5824,1.7674 -12.9935,4.9861 -3.5612,3.3986 -5.3798,8.4676 -5.4826,15.2182 -0.102,6.6912 1.5325,11.8771 4.9176,15.5925 3.4484,3.7442 7.9701,5.8283 13.6086,6.2375 5.7589,0.418 10.5565,-0.9564 14.3581,-4.1545 3.8434,-3.272 5.8673,-8.5188 6.0434,-15.7325 C 91.8253,65.767 90.0952,60.2711 86.474,56.6 82.9922,53.0306 78.4227,51.1414 72.8068,50.9153 72.6256,50.9086 72.4437,50.9035 72.2603,50.9001 71.9014,50.8934 71.5468,50.8917 71.1961,50.8987 Z M 13.808,51.9596 c -3.3462,0.0584 -6.06556,1.0912 -8.17174,3.0888 -2.19711,2.0813 -3.29223,4.679 -3.29701,7.8006 -0.00473,3.117 0.66142,5.7122 1.99966,7.7905 0.46916,0.7659 1.13863,1.5223 2.01397,2.2744 0.91106,0.7199 1.63935,1.2553 2.18133,1.603 0.5428,0.3126 1.35872,0.7639 2.44879,1.3558 1.093,0.5935 1.8453,1.116 2.2557,1.5673 0.411,0.4159 0.6159,0.8925 0.6136,1.4286 -0.005,1.179 -0.7467,1.726 -2.2199,1.6387 -1.4334,-0.0848 -2.94411,-0.6364 -4.53287,-1.6501 -1.549,-1.008 -2.6394,-1.7929 -3.27555,-2.3573 -0.57003,0.4274 -1.10779,1.3474 -1.61061,2.7616 -0.50175,1.3762 -0.75331,2.7837 -0.75524,4.2217 -0.00185,1.4371 0.59571,2.7041 1.7937,3.8031 1.20132,1.1021 2.60872,1.8866 4.2239,2.3545 1.65585,0.4723 3.50657,0.7828 5.55557,0.9315 4.2361,0.236 7.4083,-0.7879 9.4906,-3.0888 2.0961,-2.3162 3.1623,-5.4194 3.1897,-9.3021 0.021,-2.9803 -0.9036,-5.4272 -2.7678,-7.3319 -0.9118,-0.9124 -1.7696,-1.6393 -2.5747,-2.1816 -0.7683,-0.5759 -1.5015,-1.0415 -2.1985,-1.3958 -0.6607,-0.3883 -1.2504,-0.7194 -1.7708,-0.9929 -0.5196,-0.2731 -0.9178,-0.4865 -1.1943,-0.6415 -1.277,-0.6615 -1.9127,-1.3876 -1.9096,-2.1787 0.0053,-1.2952 0.8719,-1.9128 2.6047,-1.8544 1.7759,0.0599 3.7843,0.7258 6.0291,2.0044 0.319,-0.2069 0.8747,-1.2625 1.6664,-3.1702 0.7943,-1.9499 1.1956,-3.5678 1.2043,-4.8503 l 0.0028,-0.3286 c -0.0651,-0.9185 -1.1811,-1.6787 -3.3386,-2.2759 -2.0114,-0.591 -4.183,-0.9272 -6.511,-1.0101 -0.1552,-0.005 -0.3112,-0.0101 -0.4678,-0.0135 -0.2286,-0.005 -0.4549,-0.005 -0.678,-0.0014 z m 57.7415,10.2422 c 0.12,-0.0017 0.2423,-0.0014 0.3647,0.0034 1.9673,0.0683 3.5953,0.9716 4.8819,2.7116 1.3312,1.7459 1.9653,4.1961 1.8981,7.3433 -0.0671,3.1426 -0.7805,5.52 -2.137,7.1305 -1.31,1.6065 -3.0066,2.345 -5.0864,2.223 -2.0288,-0.1189 -3.6511,-1.0256 -4.869,-2.7187 -1.2144,-1.7278 -1.7917,-4.1134 -1.7365,-7.1648 0.056,-3.0945 0.7418,-5.4708 2.0626,-7.1291 1.2812,-1.5594 2.8208,-2.3607 4.6216,-2.3987 z"
         fill="#ffffff"
         id="path55"
         style="display:inline;fill:#fe3868;fill-opacity:1" /><g
         id="g5027"
         style="display:inline"><path
           style="fill:#ffffff;fill-opacity:1;stroke:#000000;stroke-width:5.65231;stroke-linecap:round;stroke-linejoin:bevel;stroke-dasharray:none;stroke-opacity:0;paint-order:stroke fill markers"
           d="m -176.52679,-82.324413 c -1.49018,0.550784 -3.02195,0.874994 -4.5496,1.256655 -0.41511,0.103714 -0.79687,0.329168 -1.21785,0.405678 -0.33258,0.06046 -0.68415,-0.07333 -1.01419,0 -0.29517,0.0656 -0.53076,0.29301 -0.81134,0.405683 -1.32247,0.531018 -2.37238,0.956925 -3.47605,1.839821 -0.31891,0.255123 -0.78816,0.434618 -1.0142,0.811355 -0.10999,0.183344 -0.10722,0.417282 -0.2028,0.608522 -0.47627,0.952448 -0.30494,0.255196 -0.60853,1.0142 -1.04347,2.608609 -0.60853,5.764983 -0.60853,8.534326 0,2.718546 -0.0345,5.102148 0.40567,7.744359 0.0554,0.333464 -0.082,0.686225 0,1.0142 0.0367,0.146672 0.17319,0.257429 0.20286,0.405678 0.0554,0.275504 -0.13537,0.9412 0,1.214664 0.25091,0.50682 0.0509,0.917183 0.19964,1.214659 0.0424,0.08452 0.17064,0.110802 0.20049,0.200464 0.19376,0.581979 -0.12113,1.378113 0,1.978478 0.03,0.148204 0.16618,0.259006 0.20286,0.405684 0.23949,0.958083 0,4.869018 0,6.085191 0,2.286377 -0.16895,4.66592 0.2028,6.896553 0.1538,0.922615 -0.13339,1.92027 0,2.846096 0.022,0.151047 0.18059,0.258373 0.20603,0.408849 0.13741,0.814017 0.1057,1.634122 0.40567,2.434076 0.41985,1.119542 0.86299,1.500276 1.42624,2.445964 0.59446,0.998237 1.07569,2.149149 1.82553,3.048935 0.4285,0.514202 0.97808,0.917098 1.41992,1.419882 0.23875,0.27173 0.4012,0.6085 0.65923,0.862068 1.01442,0.997 2.05631,1.43346 3.29693,2.05375 1.80529,0.902651 3.68265,2.105768 5.71912,2.445172 0.40013,0.06669 0.81925,-0.07956 1.217,0 0.14826,0.02967 0.25746,0.173187 0.40572,0.202839 1.62289,0.324578 4.32447,-0.177178 6.0963,0 1.22836,0.122836 2.4483,0.496329 3.68276,0.624365 1.69739,0.176053 3.42526,0.236272 5.11935,0.405683 0.33639,0.03363 0.6827,-0.0663 1.0142,0 0.35704,0.07141 0.65432,0.350314 1.0142,0.405678 0.79044,0.121609 1.8928,-0.0823 2.7209,0 1.93146,0.191952 3.86727,0.454474 5.796,0.647342 0.67277,0.06728 1.35748,-0.08386 2.02839,0 0.55325,0.06916 1.07077,0.326834 1.62272,0.405683 0.79465,0.113521 1.6577,0.211583 2.43408,0.405678 1.25688,0.314223 2.26569,1.149685 3.44827,1.622721 3.22438,1.28975 6.73756,1.8311 10.15942,1.8311 0.71154,0 1.52555,0.100815 2.23124,0 0.6899,-0.09855 1.16719,-0.443927 1.82556,-0.608516 1.10864,-0.277161 3.2113,-0.777227 4.0568,-1.622722 0.1069,-0.106902 0.0959,-0.29877 0.20284,-0.405677 0.31224,-0.312245 0.90479,-0.499111 1.21704,-0.811361 0.1069,-0.106902 0.0959,-0.29877 0.20284,-0.405678 0.0478,-0.04782 0.14874,0.04058 0.20284,0 0.72687,-0.545154 1.27045,-1.334521 1.82556,-2.028399 0.29866,-0.373329 0.70812,-0.646912 1.0142,-1.0142 0.8222,-0.98665 1.20618,-2.258781 2.02839,-3.245431 0.78277,-0.939318 1.64201,-2.093576 2.63692,-2.83976 0.12095,-0.09071 0.29877,-0.09594 0.40568,-0.202839 0.17238,-0.172384 0.2333,-0.436138 0.40568,-0.608522 0.5629,-0.562908 1.39851,-0.947463 2.02839,-1.419877 1.31186,-0.983892 3.5415,-3.322258 4.0568,-4.868154 0.53473,-1.604176 0.2872,-4.773211 0,-6.496419 -0.20883,-1.252976 0.15763,-2.605568 0,-3.866638 -0.0346,-0.276624 -0.16826,-0.534731 -0.20284,-0.811355 -0.27218,-2.177479 0.0612,-4.544067 0.20284,-6.710354 0.0853,-1.304864 0.083,-2.613176 0.20284,-3.914174 0.0842,-0.914289 0.38494,-1.801323 0.45322,-2.716946 0.0373,-0.499636 -0.0371,-1.003421 0,-1.503074 0.17946,-2.41994 0.6331,-4.826021 0.84781,-7.249143 0.10104,-1.140337 -0.10364,-2.3082 0,-3.448277 0.49658,-5.462443 0.0662,-10.870657 -0.60852,-16.268387 -0.14676,-1.174041 -0.24082,-5.028696 -1.21704,-5.679514 -0.54213,-0.36142 -1.34988,-0.202839 -1.96976,-0.202839 -0.81398,0 -2.11191,-0.23387 -2.83976,0.202839 -0.16399,0.09839 -0.2417,0.307288 -0.40568,0.405678 -0.47079,0.282474 -1.15193,0.326048 -1.62272,0.608522 -0.24598,0.147587 -0.33638,0.517808 -0.60852,0.608516 -0.12828,0.04279 -0.29316,-0.07501 -0.40568,0 -0.1258,0.08387 -0.11213,0.284729 -0.20284,0.405683 -0.39378,0.525049 -0.92067,0.842635 -1.41988,1.217039 -0.94105,-0.173572 -0.2333,0.436137 -0.40568,0.608516 -0.27877,0.278778 -0.70634,0.362234 -1.0142,0.608522 -0.60264,0.482114 -1.17382,0.98539 -1.82555,1.419877 -0.44357,0.295712 -0.99469,0.492469 -1.41988,0.811361 -0.75467,0.565994 -0.0214,0.314975 -1.0142,0.811361 -0.32567,0.162831 -0.69806,0.225029 -1.0142,0.405677 -0.37589,0.214799 -0.64296,0.588615 -1.0142,0.811361 -0.91224,0.547341 -2.02929,0.963713 -3.0426,1.217038 -0.26238,0.0656 -0.54458,-0.04448 -0.81136,0 -1.73764,0.289608 -3.50164,0.202839 -5.27383,0.202839 -1.91351,0 -3.82702,0 -5.74052,0 -0.82325,0 -1.65264,0.100419 -2.46974,0 -0.15006,-0.01843 -0.25601,-0.181456 -0.40568,-0.202839 -0.33466,-0.04782 -0.6773,0.02809 -1.0142,0 -1.06743,-0.08896 -2.18747,-0.273436 -3.24543,-0.405683 -2.48409,-0.31051 0.58857,-0.07286 -1.42781,-0.405677 -1.04658,-0.172746 -5.12908,-0.121836 -6.09549,0.202838 -0.20897,0.07021 -0.39636,0.303168 -0.59188,0.403304 -0.95951,0.491406 -1.27592,0.596635 -2.46181,0.596635 -0.33587,0 -1.0828,0.112362 -1.41988,0 -0.0907,-0.03024 -0.11221,-0.17235 -0.20284,-0.202839 -0.12642,-0.0425 -0.27976,0.05745 -0.40013,0 -0.0574,-0.02741 0.041,-0.142274 0,-0.190957 -0.16027,-0.190268 -0.51098,0.03097 -0.70043,-0.33516 -0.0476,-0.09195 0.0871,-0.254574 0,-0.3106 -0.51829,-0.333486 -0.41185,-0.82916 -0.77412,-1.374715 -0.003,-0.0045 -0.40167,-0.400036 -0.4033,-0.403303 -0.0895,-0.179054 -0.20785,-0.677351 -0.40568,-0.808982 -0.11193,-0.07447 -0.28321,0.06041 -0.40331,0 -0.0604,-0.03041 0.0478,-0.155026 0,-0.202838 -0.13522,-0.06761 -0.27045,-0.135226 -0.40567,-0.202839 0,-0.06761 0.0476,-0.15484 0,-0.202839 -0.37156,-0.374511 -1.89312,-0.494786 -2.41426,-0.599015 -1.62397,-0.324787 -3.61918,0.08663 -5.06385,0.808987 -0.43613,0.218044 -0.78098,0.593312 -1.21706,0.811355 -0.94602,0.473002 -1.99532,0.947175 -2.83977,1.622722 -0.44529,0.356242 -0.77883,0.851882 -1.21706,1.217038 -1.34751,1.122927 -2.8023,2.085781 -4.46007,2.636916 -0.14221,0.04731 -0.25735,0.237753 -0.4025,0.200464 -0.42036,-0.107981 -0.77018,-0.400398 -1.15527,-0.600597 z"
           id="path5023" /><path
           d="m -85.98085,-99.807621 -29.3601,0.32431 c -0.7384,0.0083 -1.2516,0.94501 -1.5405,2.80733 -0.123,0.88952 -0.1817,1.79785 -0.1745,2.7259 0.007,0.92765 0.0793,1.83515 0.2159,2.72165 0.3169,1.8532 0.8426,2.78 1.5792,2.7816 l 7.8799,0.0171 0.1659,30.4278 c 0.005,0.8023 2.1836,1.2885 6.5712,1.4616 4.433,0.1748 6.666,-0.144 6.664,-0.9587 l -0.073,-30.9035 8.076,0.0171 c 0.79,0.0017 1.349,-0.9584 1.675,-2.883 0.14,-0.92161 0.21,-1.86462 0.21,-2.82881 0,-0.96463 -0.07,-1.90785 -0.21,-2.8302 -0.327,-1.92854 -0.887,-2.88904 -1.679,-2.8802 z m -75.9961,2.35729 c -0.1701,-0.0011 -0.3424,-5.8e-4 -0.5149,0.0014 -4.9055,0.05743 -8.9164,1.91453 -12.0567,5.54181 -3.0728,3.59106 -4.5202,8.49206 -4.3655,14.71816 0.1534,6.1714 1.7987,10.9871 4.9505,14.4767 3.1721,3.512 7.1923,5.3736 12.091,5.5689 3.0744,0.1227 5.7473,-0.1993 8.0115,-0.97 2.2784,-0.7755 3.4097,-1.8985 3.3829,-3.366 -0.0139,-0.7529 -0.3035,-1.8165 -0.8668,-3.1887 -0.5636,-1.409 -1.1782,-2.5351 -1.8452,-3.3803 -0.6286,-0.8808 -1.0582,-1.3245 -1.2873,-1.3301 -0.2291,-0.0055 -0.3801,0.0296 -0.4549,0.1029 -0.4486,0.4395 -1.2217,0.7757 -2.3172,1.0101 -1.0553,0.1973 -2.016,0.2852 -2.8822,0.2628 -2.1011,-0.0544 -3.8533,-0.8612 -5.2624,-2.4158 -1.3681,-1.5495 -2.085,-3.879 -2.1541,-6.9948 -0.0701,-3.1575 0.526,-5.4964 1.7937,-7.0176 1.3101,-1.5273 3.055,-2.2903 5.2394,-2.2859 0.6426,0.0013 1.4035,0.1339 2.2815,0.4 0.9171,0.229 1.4918,0.4583 1.725,0.6858 0.2708,0.19 0.5028,0.285 0.6938,0.2857 0.6883,0.0026 1.5121,-0.9611 2.4745,-2.8959 1.0036,-1.9796 1.4951,-3.63914 1.4704,-4.97461 -0.0246,-1.33631 -1.1261,-2.37743 -3.2956,-3.11879 -1.9884,-0.7275 -4.2605,-1.0989 -6.8114,-1.1158 z m 30.0608,3.34453 c -0.1813,-0.0014 -0.3631,-7.2e-4 -0.5464,0.0014 -5.7439,0.06722 -10.3631,1.89028 -13.8875,5.44034 -3.4483,3.5128 -5.0998,8.6379 -4.982,15.3882 0.1167,6.691 1.9193,11.8208 5.4239,15.4239 3.5689,3.6299 8.1571,5.5666 13.806,5.7919 5.7696,0.23 10.5186,-1.3015 14.2137,-4.6218 3.7344,-3.3955 5.5867,-8.7054 5.527,-15.9211 -0.0603,-7.2803 -1.9695,-12.7157 -5.7087,-16.2668 -3.5966,-3.45399 -8.2257,-5.19317 -13.846,-5.23607 z m -57.7872,2.94307 c -0.1553,-5e-4 -0.3111,10e-4 -0.4678,0.0027 -3.659,0.0428 -6.56808,1.1716 -8.74385,3.3745 -2.12794,2.1517 -3.1382,4.7833 -3.04099,7.9034 0.0971,3.1155 0.84741,5.687 2.25285,7.7205 0.49393,0.7502 1.18891,1.4856 2.08835,2.2087 0.9341,0.6898 1.67832,1.2003 2.23138,1.5302 0.55273,0.2947 1.38286,0.7196 2.49176,1.2757 1.1118,0.5576 1.8808,1.0554 2.3057,1.493 0.4244,0.4023 0.6456,0.8713 0.6609,1.4072 0.0335,1.1786 -0.6903,1.7493 -2.1656,1.7102 -1.4354,-0.0382 -2.96335,-0.5401 -4.58438,-1.5016 -1.58112,-0.9569 -2.69712,-1.7053 -3.35138,-2.2487 -0.55576,0.4458 -1.06272,1.3832 -1.51906,2.8131 -0.45651,1.3918 -0.66155,2.8057 -0.61649,4.2431 0.045,1.4364 0.68344,2.6838 1.9167,3.7431 1.23669,1.0623 2.66868,1.8009 4.29829,2.2159 1.6704,0.4181 3.53002,0.6682 5.58272,0.75 4.2416,0.0979 7.3787,-1.0298 9.3847,-3.3973 2.0194,-2.3834 2.9846,-5.5192 2.8851,-9.4007 -0.0764,-2.9794 -1.0812,-5.3947 -3.0066,-7.2376 -0.9412,-0.8822 -1.8224,-1.5816 -2.6448,-2.0973 -0.7867,-0.5506 -1.5347,-0.9916 -2.2428,-1.323 -0.6731,-0.3666 -1.2733,-0.6779 -1.8023,-0.9343 -0.5283,-0.256 -0.9329,-0.457 -1.2144,-0.6029 -1.2979,-0.6195 -1.9569,-1.3236 -1.9796,-2.1144 -0.037,-1.2947 0.8093,-1.9406 2.5432,-1.9387 1.7768,0.002 3.8052,0.6024 6.0905,1.8072 0.3121,-0.2172 0.8331,-1.2906 1.562,-3.2231 0.7301,-1.9747 1.0788,-3.6052 1.0456,-4.8874 l -0.009,-0.3286 c -0.095,-0.9158 -1.2342,-1.6392 -3.41,-2.1658 -2.0297,-0.5252 -4.2116,-0.7903 -6.5411,-0.7972 z m 57.2637,8.3691 c 1.9685,0.0042 3.6264,0.8531 4.9691,2.5502 1.3875,1.7016 2.1013,4.1299 2.137,7.2776 0.0356,3.1432 -0.6007,5.5423 -1.9039,7.1962 -1.2568,1.6484 -2.9279,2.4429 -5.0106,2.3888 -2.0315,-0.0528 -3.6822,-0.9063 -4.9548,-2.5588 -1.2702,-1.6872 -1.9251,-4.0531 -1.9696,-7.1047 -0.0452,-3.0947 0.5621,-5.4916 1.828,-7.192 1.3116,-1.707 2.9457,-2.5614 4.9048,-2.5573 z m 17.7667,27.5319 c -0.7383,-0.0152 -1.281,0.9026 -1.6307,2.7545 -0.152,0.885 -0.24,1.7909 -0.2632,2.7187 -0.0233,0.9274 0.0183,1.8369 0.1259,2.7274 0.2561,1.8625 0.7515,2.806 1.4876,2.8316 l 7.8756,0.274299 -0.8282,30.4164 c -0.0219,0.8019 2.1401,1.3598 6.5201,1.6758 4.425,0.3192 6.666,0.0729 6.691,-0.7415 l 0.937,-30.8892 8.071,0.28 c 0.79,0.0273 1.379,-0.912999 1.768,-2.825899 0.17,-0.9165 0.272,-1.8566 0.304,-2.8202 0.031,-0.9641 -0.009,-1.9095 -0.119,-2.8359 -0.264,-1.9382 -0.791,-2.9161 -1.584,-2.9331 z m -47.191,0.4958 c -4.9047,-0.1026 -8.9755,1.623 -12.2326,5.146 -3.1885,3.489 -4.7945,8.340399 -4.8433,14.568199 -0.0483,6.1731 1.4382,11.039001 4.4743,14.6295 3.0556,3.6136 7.0138,5.6055 11.9036,5.9604 3.0687,0.2228 5.7504,-0.0118 8.0387,-0.7086 2.3025,-0.7008 3.469,-1.7855 3.4901,-3.2531 0.0108,-0.753 -0.2428,-1.826 -0.761,-3.2159 -0.5172,-1.4266 -1.096,-2.5724 -1.735,-3.4388 -0.5995,-0.9008 -1.0142,-1.3585 -1.243,-1.3715 -0.2287,-0.0135 -0.3806,0.0177 -0.4577,0.0885 -0.4628,0.4247 -1.2461,0.7358 -2.3487,0.9344 -1.0612,0.1628 -2.0243,0.2192 -2.8894,0.1685 -2.0981,-0.123 -3.8232,-0.9862 -5.1808,-2.5859 -1.3168,-1.5932 -1.9566,-3.9455 -1.9238,-7.0619 0.0331,-3.1581 0.7044,-5.4757 2.0211,-6.9547 1.3594,-1.4838 3.1293,-2.1901 5.3124,-2.1145 0.6422,0.0221 1.3983,0.1798 2.2671,0.4743 0.9092,0.2588 1.4751,0.5065 1.7008,0.7415 0.2644,0.1988 0.4942,0.3017 0.6851,0.3086 0.6879,0.0252 1.5425,-0.9121 2.5675,-2.814499 1.0678,-1.9458 1.6131,-3.5876 1.6321,-4.9231 0.0191,-1.3364 -1.0485,-2.4129 -3.1926,-3.2246 -1.9636,-0.7919 -4.2224,-1.2371 -6.7714,-1.3372 -0.1699,-0.0067 -0.341,-0.0118 -0.5135,-0.0152 z m 28.8392,4.3202 c -5.2592,0.0974 -9.5824,1.7674 -12.9935,4.9861 -3.5612,3.398599 -5.3798,8.467599 -5.4826,15.218199 -0.102,6.691201 1.5325,11.8771 4.9176,15.5925 3.4484,3.7442 7.9701,5.8283001 13.6086,6.2375001 5.7589,0.418 10.5565,-0.9564 14.3581,-4.1545001 3.8434,-3.272 5.8673,-8.5188 6.0434,-15.7325 0.1776,-7.2784 -1.5525,-12.7743 -5.1737,-16.445399 -3.4818,-3.5694 -8.0513,-5.4586 -13.6672,-5.6847 -0.1812,-0.0067 -0.3631,-0.0118 -0.5465,-0.0152 -0.3589,-0.0067 -0.7135,-0.0084 -1.0642,-0.0014 z m -57.3881,1.0615 c -3.3462,0.0584 -6.06556,1.0912 -8.17174,3.0888 -2.19711,2.0813 -3.29223,4.678999 -3.29701,7.800599 -0.005,3.117 0.66142,5.7122 1.99966,7.7905 0.46916,0.7659 1.13863,1.5223 2.01397,2.2744 0.91106,0.7199 1.63935,1.2553 2.18133,1.603 0.5428,0.3126 1.35872,0.7639 2.44879,1.3558 1.093,0.5935 1.8453,1.116 2.2557,1.567301 0.411,0.4159 0.6159,0.892499 0.6136,1.428599 -0.005,1.179 -0.7467,1.726 -2.2199,1.6387 -1.4334,-0.0848 -2.94411,-0.6364 -4.53287,-1.6501 -1.549,-1.007999 -2.6394,-1.7929 -3.27555,-2.3573 -0.57003,0.4274 -1.10779,1.347401 -1.61061,2.7616 -0.50175,1.3762 -0.75331,2.7837 -0.75524,4.2217 -0.002,1.4371 0.59571,2.7041 1.7937,3.8031 1.20132,1.1021 2.60872,1.8866 4.2239,2.3545 1.65585,0.4723 3.50657,0.7828 5.55557,0.9315 4.2361,0.236 7.4083,-0.7879 9.4906,-3.0888 2.0961,-2.3162 3.1623,-5.4194 3.1897,-9.3021 0.021,-2.9803 -0.9036,-5.4272 -2.7678,-7.3319 -0.9118,-0.9124 -1.7696,-1.6393 -2.5747,-2.1816 -0.7683,-0.5759 -1.5015,-1.0415 -2.1985,-1.3958 -0.6607,-0.3883 -1.2504,-0.7194 -1.7708,-0.9929 -0.5196,-0.2731 -0.9178,-0.4865 -1.1943,-0.6415 -1.277,-0.6615 -1.9127,-1.3876 -1.9096,-2.1787 0.005,-1.2952 0.8719,-1.9128 2.6047,-1.8544 1.7759,0.0599 3.7843,0.7258 6.0291,2.0044 0.319,-0.2069 0.8747,-1.2625 1.6664,-3.1702 0.7943,-1.9499 1.1956,-3.567799 1.2043,-4.850299 l 0.003,-0.3286 c -0.0651,-0.9185 -1.1811,-1.6787 -3.3386,-2.2759 -2.0114,-0.591 -4.183,-0.9272 -6.511,-1.0101 -0.1552,-0.005 -0.3112,-0.0101 -0.4678,-0.0135 -0.2286,-0.005 -0.4549,-0.005 -0.678,-0.0014 z m 57.7415,10.242199 c 0.12,-0.0017 0.2423,-0.0014 0.3647,0.0034 1.9673,0.0683 3.5953,0.9716 4.8819,2.7116 1.3312,1.7459 1.9653,4.1961 1.8981,7.3433 -0.0671,3.1426 -0.7805,5.520001 -2.137,7.1305 -1.31,1.6065 -3.0066,2.345 -5.0864,2.223 -2.0288,-0.1189 -3.6511,-1.0256 -4.869,-2.7187 -1.2144,-1.7278 -1.7917,-4.1134 -1.7365,-7.1648 0.056,-3.0945 0.7418,-5.4708 2.0626,-7.1291 1.2812,-1.5594 2.8208,-2.3607 4.6216,-2.3987 z"
           fill="#ffffff"
           id="path2790"
           style="display:inline;fill:#fe3868;fill-opacity:1;stroke:#ffffff;stroke-width:5.65231;stroke-linecap:round;stroke-linejoin:bevel;stroke-dasharray:none;paint-order:stroke fill markers"
           inkscape:export-filename="logoo.svg"
           inkscape:export-xdpi="96"
           inkscape:export-ydpi="96" /></g></g></g></svg>
